# This file uses centimeters as units for non-parametric coordinates.

mtllib altarOBJ.mtl
g default
v 0.467745 0.352665 -2.738284
v 0.636347 0.352665 -2.877763
v 0.636347 0.441015 -2.877763
v 0.467745 0.441015 -2.738284
v 0.764964 0.352665 -3.054790
v 0.764964 0.441015 -3.054790
v 0.269754 0.352665 -2.645116
v 0.269754 0.441015 -2.645116
v 0.467745 0.264315 -2.738284
v 0.636347 0.264315 -2.877763
v 0.845516 0.352665 -3.258241
v 0.845516 0.441015 -3.258241
v 0.764964 0.264315 -3.054790
v 0.269754 0.264315 -2.645116
v 0.467745 0.175965 -2.738284
v 0.636347 0.175965 -2.877763
v 0.845516 0.264315 -3.258241
v 0.764964 0.175965 -3.054790
v 0.054812 0.352665 -2.604114
v 0.054812 0.441015 -2.604114
v 0.269754 0.175965 -2.645116
v 0.872941 0.352665 -3.475333
v 0.872941 0.441015 -3.475333
v 0.467745 0.087615 -2.738284
v 0.636347 0.087615 -2.877763
v 0.845516 0.175965 -3.258241
v 0.764964 0.087615 -3.054790
v 0.054812 0.264315 -2.604114
v 0.269754 0.087615 -2.645116
v 0.872941 0.264315 -3.475333
v 0.467745 -0.000735 -2.738284
v 0.636347 -0.000734 -2.877763
v 0.845516 0.087615 -3.258241
v 0.764964 -0.000734 -3.054790
v 0.054812 0.175965 -2.604114
v -0.163573 0.352665 -2.617854
v -0.163573 0.441015 -2.617854
v 0.269754 -0.000735 -2.645116
v 0.872941 0.175965 -3.475333
v 0.845516 -0.000734 -3.258241
v 0.845516 0.352665 -3.692424
v 0.845516 0.441015 -3.692424
v 0.054812 0.087615 -2.604114
v -0.163573 0.264315 -2.617854
v 0.872941 0.087615 -3.475333
v 0.845516 0.264315 -3.692424
v 0.054812 -0.000734 -2.604114
v -0.163573 0.175965 -2.617854
v 0.872941 -0.000734 -3.475333
v 0.845516 0.175965 -3.692424
v -0.371680 0.352665 -2.685472
v -0.371680 0.441015 -2.685472
v -0.163573 0.087615 -2.617854
v 0.764965 0.352665 -3.895875
v 0.764965 0.441015 -3.895875
v 0.845516 0.087615 -3.692424
v -0.371680 0.264315 -2.685472
v -0.163573 -0.000734 -2.617854
v 0.764965 0.264315 -3.895875
v 0.845516 -0.000734 -3.692424
v -0.371680 0.175965 -2.685472
v 0.764965 0.175965 -3.895875
v -0.371680 0.087615 -2.685472
v -0.556434 0.352665 -2.802720
v -0.556434 0.441015 -2.802720
v 0.764965 0.087615 -3.895875
v -0.371680 -0.000734 -2.685472
v 0.069113 0.441015 -3.355236
v 0.094025 0.441015 -3.375845
v 0.094025 0.360612 -3.375845
v 0.069113 0.360612 -3.355236
v 0.113029 0.441015 -3.402002
v 0.113029 0.360612 -3.402002
v 0.636347 0.352665 -4.072902
v 0.636347 0.441015 -4.072902
v 0.039858 0.441015 -3.341470
v 0.039858 0.360612 -3.341470
v 0.124931 0.441015 -3.432064
v 0.124931 0.360612 -3.432064
v -0.556434 0.264315 -2.802720
v 0.008099 0.441015 -3.335411
v 0.008099 0.360612 -3.335411
v 0.128984 0.441015 -3.464140
v 0.128984 0.360612 -3.464140
v -0.024169 0.441015 -3.337441
v -0.024169 0.360611 -3.337441
v 0.764965 -0.000734 -3.895875
v 0.124931 0.441015 -3.496217
v 0.124931 0.360612 -3.496217
v 0.069113 0.261875 -3.355236
v 0.094025 0.261875 -3.375845
v 0.113029 0.261875 -3.402002
v 0.636347 0.264315 -4.072902
v -0.054919 0.441014 -3.347433
v -0.054919 0.360612 -3.347433
v 0.039858 0.261875 -3.341470
v 0.124931 0.261875 -3.432064
v -0.556434 0.175965 -2.802720
v 0.113029 0.441015 -3.526279
v 0.113029 0.360612 -3.526279
v 0.008099 0.261875 -3.335411
v 0.128984 0.261875 -3.464140
v -0.082217 0.441015 -3.364757
v -0.082217 0.360612 -3.364757
v -0.024169 0.261875 -3.337441
v 0.094025 0.441015 -3.552436
v 0.094025 0.360612 -3.552436
v 0.124931 0.261875 -3.496217
v 0.636347 0.175965 -4.072902
v -0.104350 0.441015 -3.388326
v -0.104350 0.360612 -3.388326
v -0.054919 0.261875 -3.347433
v 0.069113 0.163138 -3.355236
v 0.094025 0.163138 -3.375845
v 0.113029 0.163138 -3.402002
v -0.556434 0.087615 -2.802720
v 0.069113 0.441015 -3.573045
v 0.069113 0.360611 -3.573045
v 0.113029 0.261875 -3.526279
v 0.039858 0.163138 -3.341470
v 0.124931 0.163138 -3.432064
v 0.008099 0.163138 -3.335411
v 0.128984 0.163138 -3.464140
v -0.082217 0.261875 -3.364757
v -0.119926 0.441015 -3.416658
v -0.119926 0.360612 -3.416658
v -0.706225 0.352665 -2.962231
v -0.706225 0.441015 -2.962231
v 0.094025 0.261875 -3.552436
v 0.039858 0.441014 -3.586811
v 0.039858 0.360612 -3.586811
v -0.024169 0.163138 -3.337441
v 0.124931 0.163138 -3.496217
v 0.636347 0.087615 -4.072902
v -0.127967 0.441015 -3.447974
v -0.127967 0.360612 -3.447974
v -0.104350 0.261875 -3.388326
v -0.556434 -0.000734 -2.802720
v 0.008099 0.441015 -3.592870
v 0.008099 0.360612 -3.592870
v -0.054919 0.163138 -3.347433
v 0.069113 0.261875 -3.573045
v 0.069113 0.064401 -3.355236
v 0.094025 0.064401 -3.375845
v 0.113029 0.064401 -3.402002
v 0.113029 0.163138 -3.526279
v 0.039858 0.064401 -3.341470
v 0.124931 0.064401 -3.432064
v -0.127967 0.441015 -3.480306
v -0.127967 0.360612 -3.480306
v 0.467746 0.352665 -4.212381
v 0.467746 0.441015 -4.212381
v -0.024169 0.441015 -3.590839
v -0.024169 0.360612 -3.590839
v 0.008099 0.064401 -3.335411
v -0.119926 0.261875 -3.416658
v -0.706225 0.264315 -2.962231
v 0.128984 0.064401 -3.464140
v -0.082217 0.163138 -3.364757
v 0.039858 0.261875 -3.586811
v -0.119926 0.441015 -3.511622
v -0.119926 0.360612 -3.511622
v 0.094025 0.163138 -3.552436
v -0.054919 0.441015 -3.580848
v -0.054919 0.360612 -3.580848
v -0.024169 0.064401 -3.337441
v -0.104350 0.441015 -3.539955
v -0.104350 0.360612 -3.539955
v 0.124931 0.064401 -3.496217
v -0.082217 0.441015 -3.563524
v -0.082217 0.360612 -3.563524
v 0.636347 -0.000734 -4.072902
v -0.127967 0.261875 -3.447974
v 0.094025 -0.000735 -3.375845
v 0.069113 -0.000734 -3.355236
v 0.113029 -0.000735 -3.402002
v 0.008099 0.261875 -3.592870
v -0.104350 0.163138 -3.388326
v 0.039858 -0.000734 -3.341470
v 0.124931 -0.000735 -3.432064
v -0.054919 0.064401 -3.347433
v 0.069113 0.163138 -3.573045
v 0.113029 0.064401 -3.526279
v -0.127967 0.261875 -3.480306
v 0.467746 0.264315 -4.212381
v 0.008099 -0.000735 -3.335411
v -0.024169 0.261875 -3.590839
v 0.128984 -0.000735 -3.464140
v -0.706225 0.175965 -2.962231
v -0.119926 0.163138 -3.416658
v -0.119926 0.261875 -3.511622
v -0.082217 0.064401 -3.364757
v -0.024169 -0.000735 -3.337441
v 0.039858 0.163138 -3.586811
v -0.054919 0.261875 -3.580848
v 0.124931 -0.000734 -3.496217
v 0.094025 0.064401 -3.552436
v -0.104350 0.261875 -3.539955
v -0.082217 0.261875 -3.563524
v -0.127967 0.163138 -3.447974
v -0.054919 -0.000734 -3.347433
v 0.008099 0.163138 -3.592870
v -0.104350 0.064401 -3.388326
v 0.113029 -0.000734 -3.526279
v 0.069113 0.064401 -3.573045
v 0.467746 0.175965 -4.212381
v -0.127967 0.163138 -3.480306
v -0.706225 0.087615 -2.962231
v -0.024169 0.163138 -3.590839
v -0.082217 -0.000734 -3.364757
v -0.119926 0.064401 -3.416658
v 0.094025 -0.000735 -3.552436
v -0.119926 0.163138 -3.511622
v 0.039858 0.064401 -3.586811
v -0.054919 0.163138 -3.580848
v -0.811641 0.352665 -3.153982
v -0.811641 0.441015 -3.153982
v -0.104350 0.163138 -3.539955
v -0.082217 0.163138 -3.563524
v -0.104350 -0.000734 -3.388326
v -0.127967 0.064401 -3.447974
v 0.069113 -0.000735 -3.573045
v 0.008099 0.064401 -3.592870
v 0.467746 0.087616 -4.212381
v -0.706225 -0.000734 -2.962231
v -0.127967 0.064401 -3.480306
v -0.119926 -0.000734 -3.416658
v -0.024169 0.064401 -3.590839
v 0.269754 0.352665 -4.305549
v 0.269754 0.441015 -4.305549
v 0.039858 -0.000734 -3.586811
v -0.119926 0.064401 -3.511622
v -0.811641 0.264315 -3.153982
v -0.054919 0.064401 -3.580848
v -0.104350 0.064401 -3.539955
v -0.127967 -0.000734 -3.447974
v -0.082217 0.064401 -3.563524
v 0.008099 -0.000734 -3.592870
v 0.467746 -0.000734 -4.212381
v -0.127967 -0.000734 -3.480306
v -0.024169 -0.000734 -3.590839
v 0.269754 0.264315 -4.305549
v -0.119926 -0.000734 -3.511622
v -0.054919 -0.000734 -3.580848
v -0.811641 0.175965 -3.153982
v -0.104350 -0.000734 -3.539955
v -0.082217 -0.000734 -3.563524
v 0.269754 0.175965 -4.305549
v -0.811641 0.087616 -3.153982
v -0.866058 0.352665 -3.365924
v -0.866058 0.441015 -3.365924
v 0.269754 0.087616 -4.305549
v 0.054813 0.352665 -4.346551
v 0.054813 0.441015 -4.346551
v -0.811641 -0.000734 -3.153982
v -0.866058 0.264315 -3.365924
v 0.269754 -0.000734 -4.305549
v 0.054813 0.264315 -4.346551
v -0.866058 0.175965 -3.365924
v 0.054813 0.175965 -4.346551
v -0.866058 0.352665 -3.584742
v -0.866058 0.441015 -3.584742
v -0.866058 0.087616 -3.365924
v -0.163573 0.352665 -4.332812
v -0.163573 0.441015 -4.332812
v 0.054813 0.087615 -4.346551
v -0.866058 0.264315 -3.584742
v -0.866058 -0.000735 -3.365924
v -0.163573 0.264315 -4.332812
v 0.054813 -0.000734 -4.346551
v -0.866058 0.175965 -3.584742
v -0.811640 0.352665 -3.796684
v -0.811640 0.441015 -3.796684
v -0.371680 0.352665 -4.265194
v -0.371680 0.441015 -4.265194
v -0.163573 0.175965 -4.332812
v -0.866058 0.087615 -3.584742
v -0.811640 0.264315 -3.796684
v -0.706224 0.352665 -3.988435
v -0.706224 0.441015 -3.988435
v -0.371680 0.264315 -4.265194
v -0.163573 0.087615 -4.332812
v -0.556434 0.352665 -4.147946
v -0.556434 0.441015 -4.147946
v -0.866058 -0.000734 -3.584742
v -0.811640 0.175965 -3.796684
v -0.706224 0.264315 -3.988435
v -0.371680 0.175965 -4.265194
v -0.163573 -0.000734 -4.332812
v -0.556434 0.264315 -4.147946
v -0.811640 0.087615 -3.796684
v -0.706224 0.175965 -3.988435
v -0.371680 0.087615 -4.265194
v -0.556434 0.175965 -4.147946
v -0.811640 -0.000734 -3.796684
v -0.706224 0.087616 -3.988435
v -0.371680 -0.000734 -4.265194
v -0.556434 0.087616 -4.147946
v -0.706224 -0.000734 -3.988435
v -0.556434 -0.000734 -4.147946
vt 0.797151 0.312107
vt 0.797151 0.257135
vt 0.821023 0.257135
vt 0.821023 0.312108
vt 0.773279 0.312107
vt 0.773279 0.257135
vt 0.797151 0.198477
vt 0.821024 0.198477
vt 0.797150 0.359940
vt 0.821022 0.359940
vt 0.749407 0.312107
vt 0.749407 0.257135
vt 0.773279 0.198477
vt 0.773278 0.359940
vt 0.797152 0.139819
vt 0.821024 0.139820
vt 0.797150 0.397627
vt 0.821022 0.397627
vt 0.725535 0.312107
vt 0.725535 0.257135
vt 0.749407 0.198477
vt 0.749406 0.359939
vt 0.773280 0.139819
vt 0.773278 0.397627
vt 0.797152 0.084847
vt 0.821024 0.084847
vt 0.701662 0.312107
vt 0.701663 0.257135
vt 0.725535 0.198477
vt 0.725534 0.359939
vt 0.749408 0.139819
vt 0.749406 0.397627
vt 0.773280 0.084847
vt 0.797153 0.037015
vt 0.821025 0.037015
vt 0.701663 0.198477
vt 0.701662 0.359939
vt 0.725536 0.139819
vt 0.725534 0.397627
vt 0.749408 0.084847
vt 0.773281 0.037015
vt 0.797153 -0.000672
vt 0.821025 -0.000672
vt 0.701664 0.139819
vt 0.701662 0.397626
vt 0.725536 0.084847
vt 0.749409 0.037014
vt 0.773281 -0.000673
vt 0.701664 0.084846
vt 0.725537 0.037014
vt 0.749409 -0.000673
vt 0.701665 0.037014
vt 0.725537 -0.000673
vt 0.701665 -0.000673
vt 0.598078 0.529444
vt 0.589956 0.529444
vt 0.589956 0.507719
vt 0.598078 0.507719
vt 0.581289 0.529444
vt 0.581289 0.507719
vt 0.598078 0.481041
vt 0.589956 0.481041
vt 0.605146 0.529444
vt 0.605146 0.507719
vt 0.572622 0.529444
vt 0.572622 0.507719
vt 0.581289 0.481041
vt 0.605146 0.481041
vt 0.598079 0.454362
vt 0.589956 0.454362
vt 0.610714 0.529444
vt 0.610715 0.507719
vt 0.564499 0.529444
vt 0.564499 0.507719
vt 0.572622 0.481041
vt 0.581289 0.454362
vt 0.610715 0.481041
vt 0.605146 0.454362
vt 0.598079 0.427684
vt 0.589956 0.427684
vt 0.557431 0.529444
vt 0.557431 0.507719
vt 0.564499 0.481041
vt 0.572622 0.454362
vt 0.581289 0.427683
vt 0.610715 0.454362
vt 0.605146 0.427684
vt 0.589956 0.410084
vt 0.598079 0.410084
vt 0.551863 0.529444
vt 0.551863 0.507719
vt 0.557432 0.481041
vt 0.564499 0.454362
vt 0.572622 0.427683
vt 0.581289 0.410084
vt 0.610715 0.427684
vt 0.605146 0.410084
vt 0.551863 0.481041
vt 0.557432 0.454362
vt 0.564499 0.427683
vt 0.572622 0.410084
vt 0.610715 0.410084
vt 0.551863 0.454362
vt 0.557432 0.427683
vt 0.564499 0.410084
vt 0.551863 0.427683
vt 0.557432 0.410084
vt 0.551863 0.410084
vt 0.473986 0.529444
vt 0.466330 0.529444
vt 0.466330 0.507719
vt 0.473986 0.507719
vt 0.459962 0.529444
vt 0.459962 0.507719
vt 0.473986 0.481041
vt 0.466330 0.481041
vt 0.482447 0.529444
vt 0.482447 0.507719
vt 0.455281 0.529444
vt 0.455281 0.507719
vt 0.459962 0.481041
vt 0.482447 0.481041
vt 0.473986 0.454362
vt 0.466330 0.454362
vt 0.491184 0.529444
vt 0.491184 0.507719
vt 0.455281 0.481041
vt 0.459962 0.454362
vt 0.491184 0.481041
vt 0.482447 0.454362
vt 0.473986 0.427683
vt 0.466330 0.427683
vt 0.499645 0.529444
vt 0.499645 0.507719
vt 0.455281 0.454362
vt 0.459962 0.427683
vt 0.499645 0.481041
vt 0.491184 0.454362
vt 0.482447 0.427683
vt 0.466330 0.410084
vt 0.473986 0.410084
vt 0.507300 0.507719
vt 0.507300 0.529444
vt 0.455281 0.427683
vt 0.459962 0.410084
vt 0.507300 0.481041
vt 0.499645 0.454362
vt 0.491184 0.427683
vt 0.482447 0.410084
vt 0.513669 0.529444
vt 0.513669 0.507719
vt 0.455281 0.410084
vt 0.513669 0.481041
vt 0.507300 0.454362
vt 0.499645 0.427683
vt 0.491184 0.410084
vt 0.518350 0.507719
vt 0.518350 0.529444
vt 0.518350 0.481041
vt 0.513669 0.454362
vt 0.507300 0.427683
vt 0.499645 0.410084
vt 0.518350 0.454362
vt 0.513669 0.427683
vt 0.507300 0.410084
vt 0.518350 0.427683
vt 0.513669 0.410084
vt 0.518350 0.410084
vt 0.797150 0.751031
vt 0.797150 0.699220
vt 0.821022 0.699220
vt 0.821022 0.751031
vt 0.773278 0.751031
vt 0.773278 0.699220
vt 0.797150 0.656120
vt 0.821022 0.656120
vt 0.797150 0.808297
vt 0.821022 0.808297
vt 0.749406 0.751031
vt 0.749406 0.699220
vt 0.773278 0.656120
vt 0.773278 0.808297
vt 0.797150 0.624440
vt 0.821022 0.624440
vt 0.797150 0.867421
vt 0.821022 0.867421
vt 0.725534 0.751031
vt 0.725534 0.699220
vt 0.749406 0.656120
vt 0.749406 0.808297
vt 0.773278 0.624440
vt 0.773278 0.867421
vt 0.797150 0.924688
vt 0.821022 0.924688
vt 0.701662 0.751031
vt 0.701662 0.699220
vt 0.725534 0.656120
vt 0.725534 0.808297
vt 0.749406 0.624440
vt 0.749406 0.867421
vt 0.773278 0.924688
vt 0.797150 0.976499
vt 0.821022 0.976499
vt 0.701662 0.656120
vt 0.701662 0.808297
vt 0.725534 0.624440
vt 0.725534 0.867421
vt 0.749406 0.924688
vt 0.773278 0.976499
vt 0.797150 1.019599
vt 0.821022 1.019599
vt 0.701662 0.624440
vt 0.701662 0.867421
vt 0.725534 0.924688
vt 0.749406 0.976499
vt 0.773278 1.019599
vt 0.797150 1.051279
vt 0.821022 1.051279
vt 0.701662 0.924688
vt 0.725534 0.976499
vt 0.749406 1.019599
vt 0.773278 1.051279
vt 0.701662 0.976499
vt 0.725534 1.019599
vt 0.749406 1.051279
vt 0.701662 1.019599
vt 0.725534 1.051279
vt 0.701662 1.051279
vt 0.407833 0.398857
vt 0.238081 0.269153
vt 0.246662 0.267516
vt 0.442585 0.351024
vt 0.362277 0.436544
vt 0.229362 0.268604
vt 0.464350 0.296052
vt 0.254567 0.263796
vt 0.308780 0.461718
vt 0.221053 0.265904
vt 0.261298 0.258227
vt 0.471760 0.237394
vt 0.213677 0.261223
vt 0.250703 0.472796
vt 0.266433 0.251160
vt 0.464350 0.178736
vt 0.191695 0.469084
vt 0.207697 0.254855
vt 0.269649 0.243037
vt 0.442585 0.123764
vt 0.203488 0.247200
vt 0.135465 0.450814
vt 0.270744 0.234370
vt 0.407832 0.075932
vt 0.085545 0.419134
vt 0.201316 0.238738
vt 0.269649 0.225703
vt 0.362276 0.038245
vt 0.045071 0.376034
vt 0.201316 0.230002
vt 0.266433 0.217580
vt 0.308779 0.013071
vt 0.016588 0.324223
vt 0.203488 0.221541
vt 0.261298 0.210513
vt 0.250703 0.001992
vt 0.001884 0.266956
vt 0.207697 0.213885
vt 0.254567 0.204944
vt 0.191695 0.005705
vt 0.001884 0.207832
vt 0.213677 0.207517
vt 0.246662 0.201225
vt 0.135465 0.023975
vt 0.016588 0.150566
vt 0.221053 0.202836
vt 0.238081 0.199588
vt 0.085545 0.055655
vt 0.045071 0.098755
vt 0.229362 0.200136
vt 0.214620 0.943665
vt 0.252286 0.749233
vt 0.261005 0.749781
vt 0.273627 0.947377
vt 0.158389 0.925394
vt 0.243978 0.746533
vt 0.269587 0.748144
vt 0.331704 0.936298
vt 0.108469 0.893714
vt 0.236602 0.741852
vt 0.277491 0.744425
vt 0.385201 0.911124
vt 0.067996 0.850614
vt 0.230622 0.735484
vt 0.284222 0.738856
vt 0.430757 0.873437
vt 0.039513 0.798803
vt 0.226413 0.727829
vt 0.289357 0.731789
vt 0.465509 0.825605
vt 0.024809 0.741537
vt 0.224241 0.719367
vt 0.292573 0.723666
vt 0.487274 0.770633
vt 0.024809 0.682413
vt 0.224241 0.710631
vt 0.293668 0.714999
vt 0.494685 0.711975
vt 0.039513 0.625146
vt 0.226413 0.702169
vt 0.487274 0.653317
vt 0.292573 0.706332
vt 0.067996 0.573335
vt 0.230622 0.694514
vt 0.289357 0.698209
vt 0.465509 0.598345
vt 0.108469 0.530235
vt 0.236602 0.688146
vt 0.284222 0.691142
vt 0.430757 0.550512
vt 0.158389 0.498555
vt 0.243978 0.683465
vt 0.277491 0.685573
vt 0.385201 0.512825
vt 0.214620 0.480285
vt 0.252287 0.680765
vt 0.269587 0.681853
vt 0.331704 0.487651
vt 0.273627 0.476573
vt 0.261005 0.680216
vt 0.797150 0.451124
vt 0.821022 0.451124
vt 0.773278 0.451124
vt 0.797150 0.509201
vt 0.821022 0.509201
vt 0.749406 0.451124
vt 0.773278 0.509201
vt 0.797150 0.568209
vt 0.821022 0.568209
vt 0.725534 0.451124
vt 0.749406 0.509201
vt 0.773278 0.568209
vt 0.701662 0.451124
vt 0.725534 0.509201
vt 0.749406 0.568209
vt 0.701662 0.509201
vt 0.725534 0.568209
vt 0.701662 0.568209
vt 0.429673 0.529444
vt 0.421768 0.529444
vt 0.421768 0.507719
vt 0.429673 0.507719
vt 0.429673 0.481041
vt 0.421768 0.481041
vt 0.438254 0.529444
vt 0.438254 0.507719
vt 0.438254 0.481041
vt 0.429673 0.454362
vt 0.421768 0.454362
vt 0.446973 0.529444
vt 0.446973 0.507719
vt 0.446973 0.481041
vt 0.438254 0.454362
vt 0.429673 0.427683
vt 0.421768 0.427683
vt 0.446973 0.454362
vt 0.438254 0.427683
vt 0.421768 0.410084
vt 0.429673 0.410084
vt 0.446973 0.427683
vt 0.438254 0.410084
vt 0.446973 0.410084
vt 0.543958 0.529444
vt 0.543958 0.507719
vt 0.535377 0.529444
vt 0.535377 0.507719
vt 0.543958 0.481041
vt 0.526658 0.529444
vt 0.526658 0.507719
vt 0.535377 0.481041
vt 0.543958 0.454362
vt 0.526658 0.481041
vt 0.535377 0.454362
vt 0.543958 0.427683
vt 0.526658 0.454362
vt 0.535377 0.427683
vt 0.543958 0.410084
vt 0.526658 0.427683
vt 0.535377 0.410084
vt 0.526658 0.410084
vt 0.797151 1.278091
vt 0.797151 1.224594
vt 0.821023 1.224594
vt 0.821023 1.278091
vt 0.773279 1.278091
vt 0.773279 1.224594
vt 0.797150 1.166517
vt 0.821023 1.166517
vt 0.749407 1.278091
vt 0.749407 1.224594
vt 0.773278 1.166517
vt 0.797150 1.107509
vt 0.821022 1.107509
vt 0.725535 1.278091
vt 0.725535 1.224594
vt 0.749406 1.166517
vt 0.773278 1.107509
vt 0.701663 1.278091
vt 0.701663 1.224594
vt 0.725534 1.166517
vt 0.749406 1.107509
vt 0.701662 1.166517
vt 0.725534 1.107509
vt 0.701662 1.107509
vn 0.535827 0.000000 0.844328
vn 0.728969 0.000000 0.684547
vn 0.161365 0.975192 0.151531
vn 0.118903 0.975068 0.187360
vn 0.876307 0.000000 0.481754
vn 0.193400 0.975342 0.106323
vn 0.309017 0.000000 0.951057
vn 0.068692 0.974980 0.211414
vn 0.535827 0.000000 0.844328
vn 0.728968 0.000000 0.684547
vn 0.968583 0.000000 0.248690
vn 0.213051 0.975509 0.054703
vn 0.876306 0.000000 0.481754
vn 0.309017 0.000000 0.951057
vn 0.535827 0.000000 0.844328
vn 0.728969 0.000000 0.684547
vn 0.968583 0.000000 0.248690
vn 0.876306 0.000000 0.481754
vn 0.062790 0.000000 0.998027
vn 0.013970 0.974932 0.222064
vn 0.309017 0.000000 0.951057
vn 1.000000 0.000000 0.000000
vn 0.219198 0.975680 0.000000
vn 0.535827 0.000000 0.844328
vn 0.728969 0.000000 0.684547
vn 0.968583 0.000000 0.248690
vn 0.876306 0.000000 0.481754
vn 0.062790 0.000000 0.998027
vn 0.309017 0.000000 0.951057
vn 1.000000 0.000000 0.000000
vn 0.119024 -0.975017 0.187552
vn 0.161552 -0.975134 0.151708
vn 0.968583 0.000000 0.248690
vn 0.193637 -0.975281 0.106452
vn 0.062790 0.000000 0.998027
vn -0.187381 0.000000 0.982287
vn -0.041695 0.974929 0.218577
vn 0.068749 -0.974938 0.211588
vn 1.000000 0.000000 0.000000
vn 0.213310 -0.975448 0.054769
vn 0.968583 0.000000 -0.248689
vn 0.211592 0.975847 -0.054329
vn 0.062790 0.000000 0.998027
vn -0.187381 0.000000 0.982287
vn 1.000000 0.000000 0.000000
vn 0.968583 0.000000 -0.248689
vn 0.013979 -0.974903 0.222189
vn -0.187381 0.000000 0.982287
vn 0.219444 -0.975625 -0.000000
vn 0.968583 0.000000 -0.248689
vn -0.425780 0.000000 0.904827
vn -0.094666 0.974970 0.201176
vn -0.187381 0.000000 0.982287
vn 0.876307 0.000000 -0.481753
vn 0.190841 0.975998 -0.104916
vn 0.968583 0.000000 -0.248689
vn -0.425780 0.000000 0.904827
vn -0.041707 -0.974915 0.218635
vn 0.876307 0.000000 -0.481753
vn 0.211796 -0.975800 -0.054380
vn -0.425780 0.000000 0.904827
vn 0.876307 0.000000 -0.481753
vn -0.425779 0.000000 0.904827
vn -0.637424 0.000000 0.770513
vn -0.141490 0.975053 0.171032
vn 0.876307 0.000000 -0.481753
vn -0.094663 -0.974972 0.201168
vn -0.535825 0.000000 -0.844329
vn -0.728970 0.000000 -0.684546
vn -0.728970 0.000000 -0.684545
vn -0.535827 0.000000 -0.844328
vn -0.876307 0.000000 -0.481753
vn -0.876307 0.000000 -0.481753
vn 0.728969 0.000000 -0.684547
vn 0.158340 0.976125 -0.148690
vn -0.309009 0.000000 -0.951059
vn -0.309013 0.000000 -0.951058
vn -0.968583 0.000000 -0.248691
vn -0.968583 0.000000 -0.248690
vn -0.637424 0.000000 0.770513
vn -0.062786 0.000000 -0.998027
vn -0.062789 0.000000 -0.998027
vn -1.000000 0.000000 -0.000000
vn -1.000000 0.000000 -0.000000
vn 0.187381 0.000000 -0.982287
vn 0.187380 0.000000 -0.982288
vn 0.190983 -0.975962 -0.104994
vn -0.968583 0.000000 0.248689
vn -0.968583 0.000000 0.248689
vn -0.535829 0.000000 -0.844327
vn -0.728971 0.000000 -0.684544
vn -0.876307 0.000000 -0.481753
vn 0.728969 0.000000 -0.684547
vn 0.425776 0.000000 -0.904828
vn 0.425776 0.000000 -0.904828
vn -0.309016 0.000000 -0.951057
vn -0.968583 0.000000 -0.248690
vn -0.637424 0.000000 0.770514
vn -0.876307 0.000000 0.481752
vn -0.876307 0.000000 0.481753
vn -0.062790 0.000000 -0.998027
vn -1.000000 0.000000 -0.000000
vn 0.637421 0.000000 -0.770516
vn 0.637423 0.000000 -0.770514
vn 0.187382 0.000000 -0.982287
vn -0.728970 0.000000 0.684546
vn -0.728970 0.000000 0.684545
vn -0.968583 0.000000 0.248690
vn 0.728969 0.000000 -0.684547
vn 0.809019 0.000000 -0.587783
vn 0.809018 0.000000 -0.587785
vn 0.425779 0.000000 -0.904827
vn -0.535827 0.000000 -0.844328
vn -0.728970 0.000000 -0.684545
vn -0.876307 0.000000 -0.481753
vn -0.637424 0.000000 0.770513
vn -0.535824 0.000000 0.844329
vn -0.535824 0.000000 0.844330
vn -0.876307 0.000000 0.481753
vn -0.309016 0.000000 -0.951057
vn -0.968583 0.000000 -0.248690
vn -0.062791 0.000000 -0.998027
vn -1.000000 0.000000 -0.000000
vn 0.637424 0.000000 -0.770513
vn 0.929776 0.000000 -0.368125
vn 0.929776 0.000000 -0.368125
vn -0.809017 0.000000 0.587785
vn -0.179155 0.975172 0.130162
vn -0.728971 0.000000 0.684545
vn -0.309015 0.000000 0.951057
vn -0.309014 0.000000 0.951057
vn 0.187385 0.000000 -0.982287
vn -0.968583 0.000000 0.248690
vn 0.728969 0.000000 -0.684547
vn 0.992115 0.000000 -0.125333
vn 0.992115 0.000000 -0.125333
vn 0.809018 0.000000 -0.587784
vn -0.141441 -0.975071 0.170972
vn -0.062792 0.000000 0.998027
vn -0.062792 0.000000 0.998027
vn 0.425781 0.000000 -0.904826
vn -0.535824 0.000000 0.844330
vn -0.535825 0.000000 -0.844329
vn -0.728969 0.000000 -0.684547
vn -0.876307 0.000000 -0.481753
vn -0.876307 0.000000 0.481753
vn -0.309015 0.000000 -0.951057
vn -0.968583 0.000000 -0.248690
vn 0.992115 0.000000 0.125333
vn 0.992115 0.000000 0.125333
vn 0.535827 0.000000 -0.844328
vn 0.116159 0.976220 -0.183036
vn 0.187382 0.000000 0.982287
vn 0.187381 0.000000 0.982287
vn -0.062791 0.000000 -0.998027
vn 0.929776 0.000000 -0.368125
vn -0.809017 0.000000 0.587785
vn -1.000000 0.000000 -0.000000
vn 0.637423 0.000000 -0.770514
vn -0.309012 0.000000 0.951058
vn 0.023662 0.999676 0.009368
vn 0.929776 0.000000 0.368125
vn -0.728970 0.000000 0.684546
vn 0.010811 0.999678 0.022974
vn 0.425779 0.000000 0.904827
vn 0.187382 0.000000 -0.982287
vn 0.809017 0.000000 0.587785
vn 0.020555 0.999677 0.014934
vn -0.968583 0.000000 0.248690
vn 0.016182 0.999678 0.019561
vn 0.637425 0.000000 0.770513
vn 0.158417 -0.976102 -0.148762
vn 0.992115 0.000000 -0.125333
vn -0.728969 0.000000 -0.684547
vn -0.535825 0.000000 -0.844329
vn -0.876307 0.000000 -0.481753
vn -0.062790 0.000000 0.998027
vn 0.809017 0.000000 -0.587785
vn -0.309013 0.000000 -0.951058
vn -0.968583 0.000000 -0.248690
vn 0.425780 0.000000 -0.904827
vn -0.535824 0.000000 0.844330
vn -0.876307 0.000000 0.481753
vn 0.992115 0.000000 0.125333
vn 0.535826 0.000000 -0.844328
vn -0.062789 0.000000 -0.998027
vn 0.187379 0.000000 0.982288
vn -1.000000 0.000000 -0.000001
vn -0.809017 0.000000 0.587786
vn 0.929776 0.000000 -0.368125
vn 0.929777 0.000000 0.368124
vn 0.637423 0.000000 -0.770514
vn 0.187381 0.000000 -0.982287
vn -0.309013 0.000000 0.951058
vn 0.425778 0.000000 0.904828
vn -0.968583 0.000000 0.248689
vn -0.728969 0.000000 0.684547
vn 0.809017 0.000000 0.587785
vn 0.637425 0.000000 0.770513
vn 0.992115 0.000000 -0.125333
vn 0.425778 0.000000 -0.904828
vn -0.062789 0.000000 0.998027
vn 0.809016 0.000000 -0.587787
vn -0.876308 0.000000 0.481752
vn -0.535823 0.000000 0.844330
vn 0.535826 0.000000 -0.844328
vn 0.992115 0.000000 0.125334
vn -0.809017 0.000000 0.587786
vn 0.187379 0.000000 0.982288
vn 0.637423 0.000000 -0.770514
vn 0.929776 0.000000 -0.368125
vn -0.728968 0.000000 0.684548
vn 0.929777 0.000000 0.368124
vn -0.309015 0.000000 0.951057
vn 0.425778 0.000000 0.904828
vn -0.929776 0.000000 0.368124
vn -0.205295 0.975319 0.081282
vn 0.809017 0.000000 0.587785
vn 0.637425 0.000000 0.770512
vn 0.809017 0.000000 -0.587785
vn 0.992115 0.000000 -0.125333
vn -0.535822 0.000000 0.844331
vn -0.062791 0.000000 0.998027
vn 0.535827 0.000000 -0.844328
vn -0.179042 -0.975204 0.130082
vn 0.992115 0.000000 0.125334
vn 0.929776 0.000000 -0.368125
vn 0.187378 0.000000 0.982288
vn 0.309017 0.000000 -0.951056
vn 0.066909 0.976277 -0.205926
vn -0.309014 0.000000 0.951058
vn 0.929776 0.000000 0.368125
vn -0.929777 0.000000 0.368124
vn 0.425778 0.000000 0.904828
vn 0.809017 0.000000 0.587785
vn 0.992115 0.000000 -0.125333
vn 0.637425 0.000000 0.770512
vn -0.062790 0.000000 0.998027
vn 0.116180 -0.976211 -0.183071
vn 0.992115 0.000000 0.125334
vn 0.187378 0.000000 0.982288
vn 0.309017 0.000000 -0.951057
vn 0.929776 0.000000 0.368125
vn 0.425778 0.000000 0.904828
vn -0.929777 0.000000 0.368124
vn 0.809018 0.000000 0.587785
vn 0.637424 0.000000 0.770513
vn 0.309017 0.000000 -0.951057
vn -0.929777 0.000000 0.368124
vn -0.992115 0.000000 0.125333
vn -0.218336 0.975484 0.027582
vn 0.309017 0.000000 -0.951056
vn 0.062792 0.000000 -0.998027
vn 0.013591 0.976295 -0.216016
vn -0.205115 -0.975363 0.081212
vn -0.992115 0.000000 0.125333
vn 0.066901 -0.976283 -0.205903
vn 0.062792 0.000000 -0.998027
vn -0.992115 0.000000 0.125333
vn 0.062791 0.000000 -0.998027
vn -0.992115 0.000000 -0.125333
vn -0.217580 0.975655 -0.027487
vn -0.992115 0.000000 0.125333
vn -0.187380 0.000000 -0.982287
vn -0.040578 0.976271 -0.212715
vn 0.062792 0.000000 -0.998027
vn -0.992115 0.000000 -0.125333
vn -0.218105 -0.975536 0.027553
vn -0.187380 0.000000 -0.982288
vn 0.013585 -0.976315 -0.215928
vn -0.992115 0.000000 -0.125334
vn -0.929776 0.000000 -0.368125
vn -0.203213 0.975823 -0.080457
vn -0.425780 0.000000 -0.904827
vn -0.092325 0.976208 -0.196200
vn -0.187380 0.000000 -0.982287
vn -0.992115 0.000000 -0.125333
vn -0.929776 0.000000 -0.368125
vn -0.809017 0.000000 -0.587786
vn -0.176263 0.975977 -0.128062
vn -0.425779 0.000000 -0.904827
vn -0.187380 0.000000 -0.982287
vn -0.637424 0.000000 -0.770513
vn -0.138504 0.976108 -0.167422
vn -0.217324 -0.975713 -0.027455
vn -0.929776 0.000000 -0.368125
vn -0.809017 0.000000 -0.587786
vn -0.425779 0.000000 -0.904827
vn -0.040549 -0.976304 -0.212570
vn -0.637424 0.000000 -0.770513
vn -0.929776 0.000000 -0.368125
vn -0.809017 0.000000 -0.587786
vn -0.425780 0.000000 -0.904827
vn -0.637424 0.000000 -0.770513
vn -0.202965 -0.975883 -0.080359
vn -0.809017 0.000000 -0.587785
vn -0.092241 -0.976252 -0.196021
vn -0.637424 0.000000 -0.770513
vn -0.176053 -0.976035 -0.127910
vn -0.138354 -0.976160 -0.167241
vn 0.000000 1.000000 0.000001
vn 0.000000 1.000000 0.000000
vn -0.000000 1.000000 0.000000
vn 0.000000 1.000000 0.000001
vn -0.000001 -1.000000 -0.000000
vn 0.000000 -1.000000 -0.000000
vn -0.000001 -1.000000 -0.000000
vn 0.000000 -1.000000 -0.000000
vn -0.000000 1.000000 0.000000
vn -0.000000 1.000000 -0.000000
vn -0.000000 1.000000 0.000000
vn 0.000000 1.000000 -0.000000
vn -0.000000 1.000000 0.000001
vn 0.000000 1.000000 -0.000000
vn 0.000001 1.000000 -0.000000
vn 0.000000 1.000000 0.000000
vn -0.000000 1.000000 -0.000002
vn -0.000000 1.000000 0.000000
vn -0.000000 1.000000 -0.000000
vn 0.000000 1.000000 0.000001
vn -0.000001 1.000000 -0.000001
vn 0.000000 1.000000 0.000000
vn 0.000000 1.000000 0.000000
vn -0.000000 1.000000 0.000000
vn -0.000000 1.000000 -0.000000
vn 0.000001 -1.000000 0.000000
vn -0.000000 -1.000000 -0.000000
vn -0.000000 -1.000000 -0.000001
vn 0.000000 -1.000000 0.000000
vn 0.000000 -1.000000 -0.000000
vn -0.000000 -1.000000 0.000000
vn 0.000000 -1.000000 -0.000000
vn 0.000000 -1.000000 0.000000
vn -0.000000 -1.000000 0.000000
vn 0.000000 -1.000000 -0.000000
vn -0.000000 -1.000000 -0.000000
vn -0.000000 -1.000000 0.000000
vn -0.000000 -1.000000 0.000000
vn 0.000000 -1.000000 0.000001
vn 0.000000 -1.000000 -0.000000
vn 0.000000 -1.000000 -0.000001
vn -0.000000 -1.000000 -0.000000
vn -0.000000 -1.000000 0.000000
vn 0.000000 -1.000000 -0.000000
vn 0.000000 -1.000000 -0.000000
vn 0.000000 -1.000000 -0.000000
s 1
g pCylinder3 Altar
usemtl phong3SG
f 1/17/1 2/9/2 3/10/3 4/18/4
f 2/9/2 5/1/5 6/4/6 3/10/3
f 7/329/7 1/17/1 4/18/4 8/330/8
f 9/24/9 10/14/10 2/9/2 1/17/1
f 5/1/5 11/2/11 12/3/12 6/4/6
f 10/14/10 13/5/13 5/1/5 2/9/2
f 14/331/14 9/24/9 1/17/1 7/329/7
f 15/32/15 16/22/16 10/14/10 9/24/9
f 13/5/13 17/6/17 11/2/11 5/1/5
f 16/22/16 18/11/18 13/5/13 10/14/10
f 19/332/19 7/329/7 8/330/8 20/333/20
f 21/334/21 15/32/15 9/24/9 14/331/14
f 11/2/11 22/7/22 23/8/23 12/3/12
f 24/39/24 25/30/25 16/22/16 15/32/15
f 18/11/18 26/12/26 17/6/17 13/5/13
f 25/30/25 27/19/27 18/11/18 16/22/16
f 28/335/28 14/331/14 7/329/7 19/332/19
f 29/338/29 24/39/24 15/32/15 21/334/21
f 17/6/17 30/13/30 22/7/22 11/2/11
f 31/45/31 32/37/32 25/30/25 24/39/24
f 27/19/27 33/20/33 26/12/26 18/11/18
f 32/37/32 34/27/34 27/19/27 25/30/25
f 35/339/35 21/334/21 14/331/14 28/335/28
f 36/336/36 19/332/19 20/333/20 37/337/37
f 38/341/38 31/45/31 24/39/24 29/338/29
f 26/12/26 39/21/39 30/13/30 17/6/17
f 34/27/34 40/28/40 33/20/33 27/19/27
f 22/7/22 41/15/41 42/16/42 23/8/23
f 43/342/43 29/338/29 21/334/21 35/339/35
f 44/340/44 28/335/28 19/332/19 36/336/36
f 33/20/33 45/29/45 39/21/39 26/12/26
f 30/13/30 46/23/46 41/15/41 22/7/22
f 47/344/47 38/341/38 29/338/29 43/342/43
f 48/343/48 35/339/35 28/335/28 44/340/44
f 40/28/40 49/36/49 45/29/45 33/20/33
f 39/21/39 50/31/50 46/23/46 30/13/30
f 51/183/51 36/336/36 37/337/37 52/184/52
f 53/345/53 43/342/43 35/339/35 48/343/48
f 41/15/41 54/25/54 55/26/55 42/16/42
f 45/29/45 56/38/56 50/31/50 39/21/39
f 57/191/57 44/340/44 36/336/36 51/183/51
f 58/346/58 47/344/47 43/342/43 53/345/53
f 46/23/46 59/33/59 54/25/54 41/15/41
f 49/36/49 60/44/60 56/38/56 45/29/45
f 61/199/61 48/343/48 44/340/44 57/191/57
f 50/31/50 62/40/62 59/33/59 46/23/46
f 63/206/63 53/345/53 48/343/48 61/199/61
f 64/175/64 51/183/51 52/184/52 65/176/65
f 56/38/56 66/46/66 62/40/62 50/31/50
f 67/212/67 58/346/58 53/345/53 63/206/63
f 68/71/68 69/63/69 70/64/70 71/72/71
f 69/63/69 72/55/72 73/58/73 70/64/70
f 54/25/54 74/34/74 75/35/75 55/26/55
f 76/347/76 68/348/68 71/349/71 77/350/77
f 72/55/72 78/56/78 79/57/79 73/58/73
f 80/181/80 57/191/57 51/183/51 64/175/64
f 81/353/81 76/347/76 77/350/77 82/354/82
f 78/56/78 83/59/83 84/60/84 79/57/79
f 85/358/85 81/353/81 82/354/82 86/359/86
f 60/44/60 87/49/87 66/46/66 56/38/56
f 83/59/83 88/65/88 89/66/89 84/60/84
f 90/77/90 71/72/71 70/64/70 91/68/91
f 91/68/91 70/64/70 73/58/73 92/61/92
f 59/33/59 93/41/93 74/34/74 54/25/54
f 94/119/94 85/358/85 86/359/86 95/120/95
f 96/351/96 77/350/77 71/349/71 90/352/90
f 92/61/92 73/58/73 79/57/79 97/62/97
f 98/189/98 61/199/61 57/191/57 80/181/80
f 88/65/88 99/73/99 100/74/100 89/66/89
f 101/355/101 82/354/82 77/350/77 96/351/96
f 97/62/97 79/57/79 84/60/84 102/67/102
f 103/113/103 94/119/94 95/120/95 104/114/104
f 105/360/105 86/359/86 82/354/82 101/355/101
f 99/73/99 106/81/106 107/82/107 100/74/100
f 102/67/102 84/60/84 89/66/89 108/75/108
f 62/40/62 109/47/109 93/41/93 59/33/59
f 110/110/110 103/113/103 104/114/104 111/111/111
f 112/127/112 95/120/95 86/359/86 105/360/105
f 113/86/113 90/77/90 91/68/91 114/78/114
f 114/78/114 91/68/91 92/61/92 115/69/115
f 116/197/116 63/206/63 61/199/61 98/189/98
f 106/81/106 117/90/117 118/91/118 107/82/107
f 108/75/108 89/66/89 100/74/100 119/83/119
f 120/356/120 96/351/96 90/352/90 113/357/113
f 115/69/115 92/61/92 97/62/97 121/70/121
f 122/361/122 101/355/101 96/351/96 120/356/120
f 121/70/121 97/62/97 102/67/102 123/76/123
f 124/121/124 104/114/104 95/120/95 112/127/112
f 125/109/125 110/110/110 111/111/111 126/112/126
f 127/170/127 64/175/64 65/176/65 128/171/128
f 119/83/119 100/74/100 107/82/107 129/92/129
f 117/90/117 130/371/130 131/372/131 118/91/118
f 132/364/132 105/360/105 101/355/101 122/361/122
f 123/76/123 102/67/102 108/75/108 133/84/133
f 66/46/66 134/50/134 109/47/109 62/40/62
f 135/117/135 125/109/125 126/112/126 136/118/136
f 137/116/137 111/111/111 104/114/104 124/121/124
f 138/204/138 67/212/67 63/206/63 116/197/116
f 130/371/130 139/373/139 140/374/140 131/372/131
f 141/135/141 112/127/112 105/360/105 132/364/132
f 129/92/129 107/82/107 118/91/118 142/98/142
f 143/96/143 113/86/113 114/78/114 144/87/144
f 144/87/144 114/78/114 115/69/115 145/79/145
f 133/84/133 108/75/108 119/83/119 146/93/146
f 147/362/147 120/356/120 113/357/113 143/363/143
f 145/79/145 115/69/115 121/70/121 148/80/148
f 149/125/149 135/117/135 136/118/136 150/126/150
f 74/34/74 151/42/151 152/43/152 75/35/75
f 139/373/139 153/376/153 154/377/154 140/374/140
f 155/365/155 122/361/122 120/356/120 147/362/147
f 156/115/156 126/112/126 111/111/111 137/116/137
f 157/174/157 80/181/80 64/175/64 127/170/127
f 148/80/148 121/70/121 123/76/123 158/85/158
f 159/128/159 124/121/124 112/127/112 141/135/141
f 142/98/142 118/91/118 131/372/131 160/375/160
f 161/133/161 149/125/149 150/126/150 162/134/162
f 146/93/146 119/83/119 129/92/129 163/99/163
f 153/376/153 164/158/164 165/157/165 154/377/154
f 166/368/166 132/364/132 122/361/122 155/365/155
f 161/133/161 162/134/162 168/142/167 167/143/168
f 158/85/158 123/76/123 133/84/133 169/94/169
f 170/150/170 171/151/171 165/157/165 164/158/164
f 87/49/87 172/52/172 134/50/134 66/46/66
f 170/150/170 167/143/168 168/142/167 171/151/171
f 173/122/173 136/118/136 126/112/126 156/115/156
f 174/97/174 175/102/175 143/96/143 144/87/144
f 176/89/176 174/97/174 144/87/144 145/79/145
f 160/375/160 131/372/131 140/374/140 177/378/177
f 178/124/178 137/116/137 124/121/124 159/128/159
f 175/366/175 179/367/179 147/362/147 143/363/143
f 180/88/180 176/89/176 145/79/145 148/80/148
f 181/144/181 141/135/141 132/364/132 166/368/166
f 163/99/163 129/92/129 142/98/142 182/103/182
f 169/94/169 133/84/133 146/93/146 183/100/183
f 184/129/184 150/126/150 136/118/136 173/122/173
f 93/41/93 185/48/185 151/42/151 74/34/74
f 179/367/179 186/369/186 155/365/155 147/362/147
f 177/378/177 140/374/140 154/377/154 187/380/187
f 188/95/188 180/88/180 148/80/148 158/85/158
f 189/180/189 98/189/98 80/181/80 157/174/157
f 190/123/190 156/115/156 137/116/137 178/124/178
f 191/137/191 162/134/162 150/126/150 184/129/184
f 192/136/192 159/128/159 141/135/141 181/144/181
f 186/369/186 193/370/193 166/368/166 155/365/155
f 182/103/182 142/98/142 160/375/160 194/379/194
f 187/380/187 154/377/154 165/157/165 195/159/195
f 196/101/196 188/95/188 158/85/158 169/94/169
f 183/100/183 146/93/146 163/99/163 197/104/197
f 198/146/198 168/142/167 162/134/162 191/137/191
f 195/159/195 165/157/165 171/151/171 199/153/199
f 199/153/199 171/151/171 168/142/167 198/146/198
f 200/130/200 173/122/173 156/115/156 190/123/190
f 193/370/193 201/152/201 181/144/181 166/368/166
f 194/379/194 160/375/160 177/378/177 202/381/202
f 203/132/203 178/124/178 159/128/159 192/136/192
f 204/105/204 196/101/196 169/94/169 183/100/183
f 197/104/197 163/99/163 182/103/182 205/106/205
f 109/47/109 206/51/206 185/48/185 93/41/93
f 207/138/207 184/129/184 173/122/173 200/130/200
f 208/188/208 116/197/116 98/189/98 189/180/189
f 202/381/202 177/378/177 187/380/187 209/383/209
f 201/152/201 210/145/210 192/136/192 181/144/181
f 211/131/211 190/123/190 178/124/178 203/132/203
f 212/107/212 204/105/204 183/100/183 197/104/197
f 213/147/213 191/137/191 184/129/184 207/138/207
f 205/106/205 182/103/182 194/379/194 214/382/214
f 209/383/209 187/380/187 195/159/195 215/163/215
f 216/169/216 127/170/127 128/171/128 217/172/217
f 218/154/218 198/146/198 191/137/191 213/147/213
f 215/163/215 195/159/195 199/153/199 219/160/219
f 219/160/219 199/153/199 198/146/198 218/154/218
f 210/145/210 220/140/220 203/132/203 192/136/192
f 221/139/221 200/130/200 190/123/190 211/131/211
f 222/108/222 212/107/212 197/104/197 205/106/205
f 214/382/214 194/379/194 202/381/202 223/384/223
f 134/50/134 224/53/224 206/51/206 109/47/109
f 225/196/225 138/204/138 116/197/116 208/188/208
f 226/148/226 207/138/207 200/130/200 221/139/221
f 220/140/220 227/141/227 211/131/211 203/132/203
f 223/384/223 202/381/202 209/383/209 228/386/228
f 151/389/151 229/390/229 230/391/230 152/392/152
f 231/385/231 222/108/222 205/106/205 214/382/214
f 232/155/232 213/147/213 207/138/207 226/148/226
f 233/173/233 157/174/157 127/170/127 216/169/216
f 228/386/228 209/383/209 215/163/215 234/166/234
f 235/161/235 218/154/218 213/147/213 232/155/232
f 227/141/227 236/149/236 221/139/221 211/131/211
f 234/166/234 215/163/215 219/160/219 237/164/237
f 237/164/237 219/160/219 218/154/218 235/161/235
f 238/387/238 231/385/231 214/382/214 223/384/223
f 172/52/172 239/54/239 224/53/224 134/50/134
f 236/149/236 240/156/240 226/148/226 221/139/221
f 241/388/241 238/387/238 223/384/223 228/386/228
f 185/393/185 242/394/242 229/390/229 151/389/151
f 240/156/240 243/162/243 232/155/232 226/148/226
f 244/168/244 241/388/241 228/386/228 234/166/234
f 245/179/245 189/180/189 157/174/157 233/173/233
f 243/162/243 246/165/246 235/161/235 232/155/232
f 247/167/247 244/168/244 234/166/234 237/164/237
f 246/165/246 247/167/247 237/164/237 235/161/235
f 206/397/206 248/398/248 242/394/242 185/393/185
f 249/187/249 208/188/208 189/180/189 245/179/245
f 250/177/250 216/169/216 217/172/217 251/178/251
f 224/402/224 252/403/252 248/398/248 206/397/206
f 229/390/229 253/395/253 254/396/254 230/391/230
f 255/195/255 225/196/225 208/188/208 249/187/249
f 256/182/256 233/173/233 216/169/216 250/177/250
f 239/406/239 257/407/257 252/403/252 224/402/224
f 242/394/242 258/399/258 253/395/253 229/390/229
f 259/190/259 245/179/245 233/173/233 256/182/256
f 248/398/248 260/404/260 258/399/258 242/394/242
f 261/185/261 250/177/250 251/178/251 262/186/262
f 263/198/263 249/187/249 245/179/245 259/190/259
f 253/395/253 264/400/264 265/401/265 254/396/254
f 252/403/252 266/408/266 260/404/260 248/398/248
f 267/192/267 256/182/256 250/177/250 261/185/261
f 268/205/268 255/195/255 249/187/249 263/198/263
f 258/399/258 269/405/269 264/400/264 253/395/253
f 257/407/257 270/410/270 266/408/266 252/403/252
f 271/200/271 259/190/259 256/182/256 267/192/267
f 272/193/272 261/185/261 262/186/262 273/194/273
f 264/400/264 274/217/274 275/218/275 265/401/265
f 260/404/260 276/409/276 269/405/269 258/399/258
f 277/207/277 263/198/263 259/190/259 271/200/271
f 278/201/278 267/192/267 261/185/261 272/193/272
f 279/202/279 272/193/272 273/194/273 280/203/280
f 269/405/269 281/222/281 274/217/274 264/400/264
f 266/408/266 282/411/282 276/409/276 260/404/260
f 274/217/274 283/210/283 284/211/284 275/218/275
f 285/213/285 268/205/268 263/198/263 277/207/277
f 283/210/283 279/202/279 280/203/280 284/211/284
f 286/208/286 271/200/271 267/192/267 278/201/278
f 287/209/287 278/201/278 272/193/272 279/202/279
f 276/409/276 288/225/288 281/222/281 269/405/269
f 270/410/270 289/412/289 282/411/282 266/408/266
f 281/222/281 290/216/290 283/210/283 274/217/274
f 290/216/290 287/209/287 279/202/279 283/210/283
f 291/214/291 277/207/277 271/200/271 286/208/286
f 292/215/292 286/208/286 278/201/278 287/209/287
f 282/411/282 293/227/293 288/225/288 276/409/276
f 288/225/288 294/221/294 290/216/290 281/222/281
f 294/221/294 292/215/292 287/209/287 290/216/290
f 295/219/295 285/213/285 277/207/277 291/214/291
f 296/220/296 291/214/291 286/208/286 292/215/292
f 289/412/289 297/228/297 293/227/293 282/411/282
f 293/227/293 298/224/298 294/221/294 288/225/288
f 298/224/298 296/220/296 292/215/292 294/221/294
f 299/223/299 295/219/295 291/214/291 296/220/296
f 297/228/297 300/226/300 298/224/298 293/227/293
f 300/226/300 299/223/299 296/220/296 298/224/298
f 75/229/75 139/230/301 130/231/302 55/232/55
f 37/268/37 68/267/303 76/271/304 52/272/52
f 58/279/58 193/280/305 186/281/306 47/282/47
f 257/326/257 231/325/307 238/328/308 270/327/270
f 52/272/52 76/271/304 81/275/309 65/276/65
f 8/260/8 72/259/310 69/263/311 20/264/20
f 20/264/20 69/263/311 68/267/303 37/268/37
f 23/240/23 106/239/312 99/243/313 12/244/12
f 4/256/4 78/255/314 72/259/310 8/260/8
f 3/252/3 83/251/315 78/255/314 4/256/4
f 6/248/6 88/247/316 83/251/315 3/252/3
f 12/244/12 99/243/313 88/247/316 6/248/6
f 42/235/42 55/232/55 130/231/302 117/236/317
f 42/235/42 117/236/317 106/239/312 23/240/23
f 152/233/152 153/234/318 139/230/301 75/229/75
f 85/278/319 128/277/128 65/276/65 81/275/309
f 103/270/320 251/269/251 217/273/217 94/274/321
f 94/274/321 217/273/217 128/277/128 85/278/319
f 161/249/161 275/250/275 284/253/284 149/254/322
f 149/254/322 284/253/284 280/257/280 135/258/323
f 125/262/324 273/261/273 262/265/262 110/266/325
f 135/258/323 280/257/280 273/261/273 125/262/324
f 110/266/325 262/265/262 251/269/251 103/270/320
f 172/318/172 212/317/326 222/321/327 239/322/239
f 239/322/239 222/321/327 231/325/307 257/326/257
f 60/309/60 196/310/328 204/313/329 87/314/87
f 87/314/87 204/313/329 212/317/326 172/318/172
f 176/297/330 34/298/34 32/294/32 174/293/331
f 60/309/60 49/306/49 188/305/332 196/310/328
f 188/305/332 49/306/49 40/302/40 180/301/333
f 180/301/333 40/302/40 34/298/34 176/297/330
f 174/293/331 32/294/32 31/290/31 175/289/334
f 175/289/334 31/290/31 38/286/38 179/285/335
f 47/282/47 186/281/306 179/285/335 38/286/38
f 138/287/138 210/288/336 201/284/337 67/283/67
f 67/283/67 201/284/337 193/280/305 58/279/58
f 220/292/338 225/291/225 255/295/255 227/296/339
f 138/287/138 225/291/225 220/292/338 210/288/336
f 236/300/340 268/299/268 285/303/285 240/304/341
f 227/296/339 255/295/255 268/299/268 236/300/340
f 243/308/342 295/307/295 299/311/299 246/312/343
f 240/304/341 285/303/285 295/307/295 243/308/342
f 247/316/344 300/315/300 297/319/297 244/320/345
f 246/312/343 299/311/299 300/315/300 247/316/344
f 241/324/346 289/323/289 270/327/270 238/328/308
f 244/320/345 297/319/297 289/323/289 241/324/346
f 265/245/265 167/246/168 170/241/170 254/242/254
f 161/249/161 167/246/168 265/245/265 275/250/275
f 230/237/230 164/238/164 153/234/318 152/233/152
f 170/241/170 164/238/164 230/237/230 254/242/254
